<svg xmlns="http://www.w3.org/2000/svg" width="97.389" height="96.38" viewBox="0 0 97.389 96.38">
    <path data-name="Rectangle 11181" transform="translate(.707)" style="fill:none" d="M0 0h96v96H0z"/>
    <path data-name="Union 24" d="M-2774.683 3833.881v-3.527h1.765v3.527zm2.641-4.406v-1.764h3.527v1.764zm-7.046 0v-1.764h3.528v1.764zm4.4-2.639v-3.529h1.765v3.529zm72.287-76.747 1.548-2.681 1.34.773-1.547 2.682zm3.94-2.189.774-1.341 2.681 1.548-.773 1.341zm-5.355-3.093.773-1.34 2.682 1.548-.773 1.34zm-83.163-.774 1.009-1.008 2.016 2.016-1.008 1.008zm-4.026 1.008 2.016-2.016 1.009 1.008-2.017 2.016zm91.7-.308 1.548-2.681 1.341.772-1.548 2.683zm-87.67-3.718 2.017-2.016 1.007 1.008-2.016 2.017zm-4.026-1.007 1.008-1.008 2.016 2.016-1.008 1.009z" transform="translate(2791.707 -3738.001)" style="stroke:transparent;stroke-miterlimit:10;fill:#0b3254;opacity:.35"/>
    <path data-name="Path 13340" d="M84.245 64.762H26.157a4 4 0 0 1-4-4V21.844a4 4 0 0 1 4-4h58.088a4 4 0 0 1 4 4v38.918a4 4 0 0 1-4 4" transform="translate(.707 1)" style="fill:#b6c2cc"/>
    <path data-name="Rectangle 11148" transform="translate(68.61 33.547)" style="fill:#fff" d="M0 0h24.051v37.652H0z"/>
    <path data-name="Union 23" d="M-2729.628 3804.694a7.472 7.472 0 0 1-7.464-7.464v-28.611a7.472 7.472 0 0 1 7.464-7.464h15.757a7.473 7.473 0 0 1 7.464 7.464v28.611a7.472 7.472 0 0 1-7.464 7.464zm-2.488-36.075v28.611a2.492 2.492 0 0 0 2.488 2.488h15.757a2.49 2.49 0 0 0 2.487-2.488v-28.611a2.49 2.49 0 0 0-2.487-2.488h-15.757a2.492 2.492 0 0 0-2.489 2.488zm-38.4 36.075v-4.976h3.2l2.044-6.9h-18.1a7.638 7.638 0 0 1-7.63-7.629v-38.564a7.638 7.638 0 0 1 7.63-7.629h56.559a7.638 7.638 0 0 1 7.63 7.629v10.617h-4.977v-10.617a2.656 2.656 0 0 0-2.653-2.654h-56.559a2.656 2.656 0 0 0-2.655 2.654v38.564a2.656 2.656 0 0 0 2.655 2.653h42.364v4.977h-3.908l2.044 6.9h3.2v4.976zm8.473-5.241h13.9l-1.955-6.592h-10zm39.048-2.6a2.487 2.487 0 0 1-2.487-2.487 2.488 2.488 0 0 1 2.487-2.489h2.488a2.489 2.489 0 0 1 2.489 2.489 2.488 2.488 0 0 1-2.489 2.487zm-51.1-17.054v-3.524h15.861v3.524zm0-7.188v-3.524h31.722v3.524zm0-7.188v-3.523h31.722v3.524zm.165-7.186v-3.525h31.722v3.525z" transform="translate(2802.115 -3730.618)" style="fill:#0a3254;stroke:transparent;stroke-miterlimit:10"/>
</svg>
