<svg xmlns="http://www.w3.org/2000/svg" width="97.39" height="97.207" viewBox="0 0 97.39 97.207">
    <path data-name="Rectangle 11146" style="fill:none" d="M0 0h96v96H0z" transform="translate(.707 .707)"/>
    <path data-name="Union 25" d="M-2643.983 3828v-3.753h1.877V3828zm2.81-4.686v-1.877h3.752v1.877zm-7.5 0v-1.877h3.753v1.877zm4.686-2.809v-3.753h1.877v3.753zm77.115-40.149 1.647-2.852 1.427.823-1.647 2.852zm4.191-2.33.823-1.426 2.853 1.649-.824 1.426zm-5.7-3.289.824-1.427 2.852 1.648-.823 1.426zm4.795-.079 1.647-2.853 1.427.825-1.65 2.852zm-87.139-37.3 1.073-1.071 2.143 2.143-1.072 1.072zm-4.282 1.072 2.144-2.143 1.071 1.071-2.144 2.144zm0-5.354 1.071-1.072 2.144 2.143-1.071 1.073zm4.282 1.071 2.144-2.143 1.072 1.072-2.144 2.143z" transform="translate(2655.707 -3731.292)" style="stroke:transparent;stroke-miterlimit:10;fill:#0b3254;opacity:.35"/>
    <path data-name="Path 13316" d="M67.915 28.007H11.323a4 4 0 0 1-4-4V18.9a4 4 0 0 1 4-4h56.592a4 4 0 0 1 4 4v5.107a4 4 0 0 1-4 4" style="fill:#b6c2cc" transform="translate(.707 .707)"/>
    <path data-name="Path 13315" d="M75.028 82.183H23.134a4 4 0 0 1-4-4v-37.4a4 4 0 0 1 4-4h51.894a4 4 0 0 1 4 4v37.4a4 4 0 0 1-4 4" style="fill:#b6c2cc" transform="translate(.707 .707)"/>
    <path data-name="Path 13318" d="M91.723 72.682a19.476 19.476 0 1 1-19.476-19.507 19.492 19.492 0 0 1 19.476 19.507" style="fill:#fff" transform="translate(.707 .707)"/>
    <path data-name="Union 19" d="M-2609.446 3797.646a22.242 22.242 0 0 1 22.217-22.216 22.241 22.241 0 0 1 22.216 22.216 22.241 22.241 0 0 1-22.216 22.216 22.242 22.242 0 0 1-22.217-22.216zm5.325 0a16.91 16.91 0 0 0 16.892 16.891 16.909 16.909 0 0 0 16.891-16.891 16.909 16.909 0 0 0-16.891-16.891 16.91 16.91 0 0 0-16.891 16.891zm13.294 9.088a2 2 0 0 1-1.482-.755l-6.263-7.912 3.13-2.479 4.827 6.1 11.7-12.5 2.915 2.73-13.289 14.186a2 2 0 0 1-1.457.632c-.024 0-.054 0-.08-.002zm-54.993-5.972a9.191 9.191 0 0 1-9.18-9.181v-45.625a9.192 9.192 0 0 1 9.18-9.18h3.755v-4.392h3.993v4.392h4.134v-4.469h3.994v4.469h4.135v-4.546h3.994v4.546h4.135v-4.622h3.995v4.622h4.134v-4.7h3.994v4.7h4.134V3732h3.995v4.776h3.753a9.191 9.191 0 0 1 9.18 9.18v22.391h-5.324v-12.5h-59.853v35.728a3.86 3.86 0 0 0 3.855 3.857h29.293v5.324zm-3.855-54.806v5.9h59.853v-5.9a3.86 3.86 0 0 0-3.856-3.855h-3.753v4.027h-3.995v-4.028h-4.134v4.1h-3.994v-4.1h-4.134v4.181h-3.995v-4.181h-4.135v4.258h-3.994v-4.258h-4.135v4.334h-3.994v-4.334h-4.134v4.411h-3.993v-4.411h-3.755a3.859 3.859 0 0 0-3.852 3.856zm31.574 40.5a2.444 2.444 0 0 1 2.445-2.444 2.443 2.443 0 0 1 2.444 2.444 2.444 2.444 0 0 1-2.444 2.445 2.445 2.445 0 0 1-2.444-2.448zm-8.141 0a2.443 2.443 0 0 1 2.444-2.444 2.444 2.444 0 0 1 2.445 2.444 2.444 2.444 0 0 1-2.445 2.445 2.444 2.444 0 0 1-2.443-2.448zm-8.141 0a2.444 2.444 0 0 1 2.445-2.444 2.443 2.443 0 0 1 2.444 2.444 2.444 2.444 0 0 1-2.444 2.445 2.444 2.444 0 0 1-2.444-2.448zm-8.141 0a2.443 2.443 0 0 1 2.444-2.444 2.444 2.444 0 0 1 2.445 2.444 2.445 2.445 0 0 1-2.445 2.445 2.444 2.444 0 0 1-2.443-2.448zm24.423-8.147a2.444 2.444 0 0 1 2.445-2.444 2.443 2.443 0 0 1 2.444 2.444 2.443 2.443 0 0 1-2.444 2.444 2.444 2.444 0 0 1-2.444-2.447zm-8.141 0a2.443 2.443 0 0 1 2.444-2.444 2.443 2.443 0 0 1 2.445 2.444 2.444 2.444 0 0 1-2.445 2.444 2.443 2.443 0 0 1-2.443-2.447zm-8.141 0a2.443 2.443 0 0 1 2.445-2.444 2.443 2.443 0 0 1 2.444 2.444 2.443 2.443 0 0 1-2.444 2.444 2.444 2.444 0 0 1-2.444-2.447zm-8.141 0a2.443 2.443 0 0 1 2.444-2.444 2.444 2.444 0 0 1 2.445 2.444 2.444 2.444 0 0 1-2.445 2.444 2.443 2.443 0 0 1-2.443-2.447zm32.563-8.147a2.444 2.444 0 0 1 2.445-2.445 2.444 2.444 0 0 1 2.444 2.445 2.443 2.443 0 0 1-2.444 2.444 2.444 2.444 0 0 1-2.444-2.447zm-8.14 0a2.444 2.444 0 0 1 2.445-2.445 2.443 2.443 0 0 1 2.444 2.445 2.443 2.443 0 0 1-2.444 2.444 2.444 2.444 0 0 1-2.444-2.447zm-8.141 0a2.443 2.443 0 0 1 2.444-2.445 2.444 2.444 0 0 1 2.445 2.445 2.443 2.443 0 0 1-2.445 2.444 2.443 2.443 0 0 1-2.443-2.447zm-8.141 0a2.444 2.444 0 0 1 2.445-2.445 2.443 2.443 0 0 1 2.444 2.445 2.443 2.443 0 0 1-2.444 2.444 2.443 2.443 0 0 1-2.444-2.447zm-8.141 0a2.443 2.443 0 0 1 2.444-2.445 2.444 2.444 0 0 1 2.445 2.445 2.444 2.444 0 0 1-2.445 2.444 2.443 2.443 0 0 1-2.443-2.447zm40.7-8.149a2.443 2.443 0 0 1 2.445-2.444 2.443 2.443 0 0 1 2.444 2.444 2.443 2.443 0 0 1-2.444 2.445 2.444 2.444 0 0 1-2.44-2.447zm-8.141 0a2.444 2.444 0 0 1 2.445-2.444 2.443 2.443 0 0 1 2.444 2.444 2.444 2.444 0 0 1-2.444 2.445 2.444 2.444 0 0 1-2.44-2.447zm-8.14 0a2.444 2.444 0 0 1 2.445-2.444 2.443 2.443 0 0 1 2.444 2.444 2.443 2.443 0 0 1-2.444 2.445 2.444 2.444 0 0 1-2.44-2.447zm-8.141 0a2.443 2.443 0 0 1 2.444-2.444 2.443 2.443 0 0 1 2.445 2.444 2.444 2.444 0 0 1-2.445 2.445 2.443 2.443 0 0 1-2.439-2.447zm-8.141 0a2.443 2.443 0 0 1 2.445-2.444 2.443 2.443 0 0 1 2.444 2.444 2.443 2.443 0 0 1-2.444 2.445 2.444 2.444 0 0 1-2.44-2.447zm-8.141 0a2.443 2.443 0 0 1 2.444-2.444 2.444 2.444 0 0 1 2.445 2.444 2.444 2.444 0 0 1-2.445 2.445 2.443 2.443 0 0 1-2.439-2.447z" transform="translate(2660.082 -3724.155)" style="fill:#0a3254;stroke:transparent;stroke-miterlimit:10"/>
</svg>
