<svg xmlns="http://www.w3.org/2000/svg" width="97.207" height="97.185" viewBox="0 0 97.207 97.185">
    <path data-name="Rectangle 11500" transform="translate(.5 .683)" style="fill:none" d="M0 0h96v96H0z"/>
    <path data-name="Union 43" d="M-3194.765 3835v-3.394h1.7V3835zm2.54-4.237v-1.695h3.392v1.695zm-6.775 0v-1.695h3.392v1.695zm4.235-2.538v-3.393h1.7v3.393zm68.361-79.743.969-.968 1.938 1.938-.968.969zm-3.871.969 1.938-1.937.97.968-1.938 1.938zm-63.18-2.726 1.49-2.578 1.29.745-1.49 2.579zm67.052-1.144 1.938-1.937.968.968-1.937 1.938zm-3.871-.969.969-.968 1.938 1.938-.97.969zm-59.391.009.744-1.289 2.579 1.488-.745 1.29zm-5.149-2.973.744-1.289 2.578 1.488-.744 1.29zm4.334-.07 1.489-2.579 1.288.744-1.487 2.579z" transform="translate(3199.5 -3738.317)" style="stroke:transparent;stroke-miterlimit:10;fill:#0b3254;opacity:.35"/>
    <path data-name="Union 44" d="M-3188.69 3804.305a3.027 3.027 0 0 1-3.027-3.026v-33.856a127.976 127.976 0 0 0 34.483 4.888c16.379 0 35.445-4.888 35.445-4.888v33.856a3.026 3.026 0 0 1-3.026 3.026zm-10.31-47.626V3739h68.138v17.679z" transform="translate(3208.017 -3718.588)" style="fill:#b6c2cc;stroke:transparent;stroke-miterlimit:10"/>
    <path data-name="Path 13435" d="M87.5 72.767a13.427 13.427 0 1 1-13.426-13.034A13.232 13.232 0 0 1 87.5 72.767" transform="translate(.5 .683)" style="fill:#fff"/>
    <path data-name="Union 45" d="M-3120.542 3823.259a16.462 16.462 0 0 1-9.63 3.12 16.439 16.439 0 0 1-11.661-4.823 16.51 16.51 0 0 1 0-23.322 16.508 16.508 0 0 1 23.321 0 16.5 16.5 0 0 1 1.7 21.291l8.979 8.98-3.733 3.734zm-17.557-21.291a11.224 11.224 0 0 0 0 15.854 11.227 11.227 0 0 0 15.854 0 11.225 11.225 0 0 0 0-15.854 11.179 11.179 0 0 0-7.927-3.279 11.177 11.177 0 0 0-7.928 3.28zm-52.98 11.742a7.929 7.929 0 0 1-7.921-7.92v-44.89a7.93 7.93 0 0 1 7.921-7.922h11.882v-7.725a6.547 6.547 0 0 1 6.791-6.254h20.746a6.546 6.546 0 0 1 6.789 6.254v7.725h11.882a7.93 7.93 0 0 1 7.922 7.922v27.228h-5.281V3774.9a180.615 180.615 0 0 1-13.171 2.8v6.506h-5.281v-5.691a101.551 101.551 0 0 1-13.388 1 107.406 107.406 0 0 1-13.141-.85v5.54h-5.281v-6.312a131.09 131.09 0 0 1-13.109-2.884v30.788a2.642 2.642 0 0 0 2.64 2.639H-3152v5.281zm15.75-45.355v4.968a102.024 102.024 0 0 0 13.141.905 97.432 97.432 0 0 0 13.388-1.062v-4.811h5.281v3.963a177.814 177.814 0 0 0 13.171-2.88v-8.538a2.644 2.644 0 0 0-2.641-2.641h-58.09a2.643 2.643 0 0 0-2.64 2.641v8.6a127.14 127.14 0 0 0 13.109 3.009v-4.159zm1.413-23.1v7.725h23.765v-7.725c0-.459-.645-.973-1.509-.973h-20.746c-.864-.001-1.51.518-1.51.972z" transform="translate(3204.329 -3736.445)" style="fill:#0a3254;stroke:transparent;stroke-miterlimit:10"/>
</svg>
