<svg xmlns="http://www.w3.org/2000/svg" width="97.183" height="97.207" viewBox="0 0 97.183 97.207">
    <path data-name="Rectangle 11535" style="fill:none" d="M0 0h96v96H0z" transform="translate(.5 .707)"/>
    <path data-name="Union 32" d="M-2922.91 3831.873v-3.273h1.638v3.276zm2.452-4.09v-1.638h3.277v1.638zm-6.542 0v-1.638h3.276v1.638zm4.09-2.452v-3.277h1.638v3.277zm85.042-74.217 1.438-2.49 1.245.718-1.438 2.491zm3.659-2.033.719-1.245 2.49 1.439-.718 1.245zm-4.973-2.871.719-1.245 2.489 1.438-.719 1.245zm4.185-.069 1.438-2.49 1.244.719-1.438 2.49zm-81.209-2.468.938-.936 1.871 1.874-.935.936zm-3.736.936 1.87-1.872.938.936-1.874 1.873zm3.736-3.738 1.873-1.871.935.935-1.871 1.873zm-3.738-.936.937-.935 1.872 1.871-.936.938z" transform="translate(2927.5 -3738.293)" style="stroke:transparent;stroke-miterlimit:10;fill:#0b3254;opacity:.35"/>
    <path data-name="Path 13437" d="M71.4 85.585H27.753a4 4 0 0 1-4-4V20.979a4 4 0 0 1 4-4H71.4a4 4 0 0 1 4 4v60.606a4 4 0 0 1-4 4" style="fill:#b6c2cc" transform="translate(.5 .707)"/>
    <path data-name="Path 13438" d="M83.218 77.361A14.909 14.909 0 1 1 68.309 62.4a14.933 14.933 0 0 1 14.909 14.961" style="fill:#fff" transform="translate(.5 .707)"/>
    <path data-name="Union 31" d="M-2891.171 3810.523a18.546 18.546 0 0 1 18.525-18.523 18.546 18.546 0 0 1 18.525 18.525 18.546 18.546 0 0 1-18.525 18.524 18.546 18.546 0 0 1-18.525-18.526zm5.3 0a13.243 13.243 0 0 0 13.229 13.229 13.243 13.243 0 0 0 13.228-13.229 13.243 13.243 0 0 0-13.228-13.229 13.243 13.243 0 0 0-13.232 13.229zm10.293 7.743a1.98 1.98 0 0 1-1.473-.751l-5.086-6.425 3.114-2.466 3.656 4.617 9.213-9.836 2.9 2.716-10.79 11.519a2 2 0 0 1-1.45.628zm-44.447-4.79a6.98 6.98 0 0 1-6.975-6.976v-60.531a6.98 6.98 0 0 1 6.972-6.973h43.237a6.98 6.98 0 0 1 6.972 6.973v42.219h-5.3v-42.219a1.678 1.678 0 0 0-1.676-1.676h-43.237a1.678 1.678 0 0 0-1.676 1.676v60.531a1.677 1.677 0 0 0 1.676 1.675H-2895v5.3zm9.448-20.6a1.864 1.864 0 0 1-1.385-.7l-2.689-3.4 2.924-2.315 1.346 1.7 4.224-4.509 2.722 2.549-5.7 6.089a1.862 1.862 0 0 1-1.361.591.712.712 0 0 1-.084-.003zm10.321-3.042v-3.73h20.035v3.73zm-10.321-12.8a1.864 1.864 0 0 1-1.385-.705l-2.689-3.4 2.924-2.315 1.346 1.7 4.224-4.51 2.722 2.55-5.7 6.089a1.865 1.865 0 0 1-1.361.59.4.4 0 0 1-.084.002zm10.321-3.042v-3.729h20.035v3.729zm-10.321-12.8a1.868 1.868 0 0 1-1.385-.7l-2.689-3.4 2.924-2.315 1.346 1.7 4.224-4.51 2.722 2.55-5.7 6.089a1.861 1.861 0 0 1-1.361.59l-.084-.004zm10.321-3.042v-3.73h20.035v3.73z" transform="translate(2941.457 -3732.34)" style="fill:#0a3254;stroke:transparent;stroke-miterlimit:10"/>
</svg>
