<svg xmlns="http://www.w3.org/2000/svg" width="96.06" height="97.208" viewBox="0 0 96.06 97.208">
    <path data-name="Rectangle 11275" transform="translate(0 .707)" style="fill:none" d="M0 0h96v96H0z"/>
    <path data-name="Union 56" d="M-3399.547 3828v-3.428h1.714V3828zm2.566-4.279v-1.715h3.426v1.715zm-6.845 0v-1.715h3.427v1.715zm4.279-2.565v-3.428h1.714v3.428zm-70.078-33.846 1.5-2.6 1.3.752-1.5 2.6zm3.828-2.126.752-1.3 2.6 1.5-.751 1.3zm-5.2-3 .751-1.3 2.605 1.5-.752 1.3zm4.378-.072 1.5-2.6 1.3.751-1.5 2.605zm81.71-45.219.98-.979 1.958 1.959-.979.978zm-3.91.98 1.958-1.959.979.979-1.958 1.958zm3.91-3.911 1.959-1.959.979.98-1.959 1.957zm-3.91-.979.979-.98 1.958 1.959-.979.978z" transform="translate(3472 -3731.293)" style="stroke:transparent;stroke-miterlimit:10;fill:#0b3254;opacity:.35"/>
    <path data-name="Path 13367" d="M93.644 47.438A35.094 35.094 0 1 1 58.55 12.344a35.094 35.094 0 0 1 35.094 35.094" transform="translate(1 .707)" style="fill:#b6c2cc"/>
    <path data-name="Path 13369" d="M90.888 61.852a14.82 14.82 0 1 1-14.819-14.978 14.9 14.9 0 0 1 14.819 14.978" transform="translate(1 .707)" style="fill:#fff"/>
    <path data-name="Union 57" d="M-3426.22 3792.779a18.716 18.716 0 0 1 18.695-18.695 18.716 18.716 0 0 1 18.7 18.695 18.717 18.717 0 0 1-18.7 18.7 18.717 18.717 0 0 1-18.695-18.7zm4.834 0a13.876 13.876 0 0 0 13.86 13.861 13.877 13.877 0 0 0 13.862-13.861 13.879 13.879 0 0 0-13.862-13.862 13.877 13.877 0 0 0-13.86 13.862zm-49.615-22.9a37.925 37.925 0 0 1 37.882-37.879 37.926 37.926 0 0 1 37.882 37.883h-4.834c0-4.067-6.161-8.445-16.129-10.871a84.628 84.628 0 0 1 .684 10.871h-4.834a76.722 76.722 0 0 0-.893-11.877 76.862 76.862 0 0 0-11.875-.892 76.881 76.881 0 0 0-11.877.892 76.874 76.874 0 0 0-.892 11.877 76.86 76.86 0 0 0 .892 11.875 76.875 76.875 0 0 0 11.877.893q1.4 0 2.769-.047l.167 4.831q-1.455.05-2.937.05a84.64 84.64 0 0 1-10.871-.684c2.427 9.969 6.8 16.13 10.871 16.13a33.264 33.264 0 0 0 4.407-.293l.64 4.792a38.219 38.219 0 0 1-5.047.334 37.923 37.923 0 0 1-37.881-37.881zm27.828 31.479c-2.623-3.793-4.7-9.1-6-15.426-6.329-1.307-11.632-3.379-15.424-6a33.2 33.2 0 0 0 21.425 21.43zm-22.994-31.479c0 4.065 6.161 8.442 16.128 10.869a84.6 84.6 0 0 1-.683-10.869 84.634 84.634 0 0 1 .683-10.871c-9.967 2.43-16.127 6.807-16.127 10.875zm49.1-16.055c6.331 1.306 11.635 3.38 15.427 6a33.194 33.194 0 0 0-21.428-21.428c2.625 3.798 4.698 9.104 6.003 15.432zm-47.533 6c3.793-2.623 9.095-4.7 15.424-6 1.3-6.33 3.379-11.633 6-15.424a33.193 33.193 0 0 0-21.424 21.43zm42.35-6.867c-2.427-9.967-6.8-16.128-10.871-16.128s-8.445 6.161-10.871 16.128a84.822 84.822 0 0 1 10.871-.683 84.832 84.832 0 0 1 10.873.689zm14.723 42.378-4.2 4.2-2.562-2.562 4.2-4.2-4.2-4.2 2.563-2.562 4.2 4.2 4.2-4.2 2.563 2.563-4.2 4.2 4.2 4.2-2.563 2.563z" transform="translate(3484.389 -3730.293)" style="fill:#0a3254;stroke:transparent;stroke-miterlimit:10"/>
</svg>
