<svg xmlns="http://www.w3.org/2000/svg" width="97.39" height="97.207" viewBox="0 0 97.39 97.207">
    <path data-name="Rectangle 11115" style="fill:none" d="M0 0h96v96H0z" transform="translate(.683 .707)"/>
    <path data-name="Union 26" d="M-2487.3 3828v-3.511h1.755V3828zm2.627-4.384v-1.754h3.511v1.754zm-7.01 0v-1.754h3.511v1.754zm4.383-2.628v-3.51h1.755v3.51zm-30.3-72.878 1.54-2.668 1.335.77-1.542 2.669zm3.921-2.178.77-1.334 2.669 1.541-.771 1.333zm-5.329-3.078.77-1.333 2.669 1.54-.77 1.334zm4.486-.073 1.541-2.669 1.333.77-1.54 2.669zm88.505-5.774 1-1 2.006 2.006-1 1zm-4.005 1 2.005-2.006 1 1-2 2.006zm4.005-4L-2424 3732l1 1-2.006 2.005zm-4.005-1 1-1 2 2.007-1 1z" transform="translate(2519.683 -3731.293)" style="stroke:transparent;stroke-miterlimit:10;fill:#0b3254;opacity:.35"/>
    <path data-name="Path 13311" d="M91.072 28.462a3.306 3.306 0 0 0-3.336-3.022 8.15 8.15 0 0 1-8.272-7.156 3.308 3.308 0 0 0-3.347-3.031H41.71a3.3 3.3 0 0 0-3.335 3.022 8.15 8.15 0 0 1-8.275 7.166 3.342 3.342 0 0 0-3.347 3.022c-1.426 16.692-.979 27.848 1.332 33.157 4.134 9.486 19.616 24.212 29.59 28.141a3.425 3.425 0 0 0 1.237.226 3.571 3.571 0 0 0 1.256-.231c9.963-3.928 25.444-18.656 29.584-28.138 2.317-5.331 2.76-16.487 1.32-33.156" style="fill:#b6c2cc" transform="translate(.683 .707)"/>
    <path data-name="Path 13312" d="M85.066 19.9a3.525 3.525 0 0 0-3.558-3.223 8.693 8.693 0 0 1-8.824-7.633 3.529 3.529 0 0 0-3.57-3.234h-36.7a3.525 3.525 0 0 0-3.558 3.224 8.691 8.691 0 0 1-8.824 7.643 3.565 3.565 0 0 0-3.57 3.224c-1.521 17.805-1.044 29.7 1.421 35.368C22.292 65.39 38.806 81.1 49.445 85.288a3.625 3.625 0 0 0 1.319.241 3.825 3.825 0 0 0 1.34-.245c10.625-4.19 27.138-19.9 31.554-30.015 2.471-5.686 2.942-17.585 1.408-35.369m-5.707 33.5c-3.842 8.8-19.233 23.48-28.587 27.366-9.423-3.941-24.76-18.58-28.591-27.367-2.047-4.7-2.445-16.083-1.133-32.067A13.441 13.441 0 0 0 33.39 10.5h34.759A13.439 13.439 0 0 0 80.48 21.331c1.325 15.977.931 27.344-1.121 32.066" style="fill:#0a3254" transform="translate(.683 .707)"/>
    <path data-name="Rectangle 11086" transform="translate(38.897 37.217)" style="fill:#fff" d="M0 0h25.798v22.459H0z"/>
    <path data-name="Union 15" d="M-2512.348 3774.2a6.659 6.659 0 0 1-6.652-6.651v-14.476a6.592 6.592 0 0 1 5.346-6.486v-4.256A10.346 10.346 0 0 1-2503.32 3732h1.6a10.345 10.345 0 0 1 10.335 10.333v4.256a6.592 6.592 0 0 1 5.344 6.486v14.476a6.658 6.658 0 0 1-6.649 6.651zm-1.963-21.127v14.476a1.965 1.965 0 0 0 1.963 1.962h19.656a1.963 1.963 0 0 0 1.961-1.962v-14.476a1.968 1.968 0 0 0-1.526-1.9h-20.528a1.941 1.941 0 0 0-1.526 1.902zm5.347-10.742v4.161l12.886.016v-4.177a5.651 5.651 0 0 0-5.645-5.644h-1.6a5.65 5.65 0 0 0-5.641 5.646zm4.691 21.439v-2.149a3.492 3.492 0 0 1-1.753-3.016 3.509 3.509 0 0 1 3.506-3.5 3.5 3.5 0 0 1 3.5 3.5 3.489 3.489 0 0 1-1.75 3.016v2.149a1.751 1.751 0 0 1-1.751 1.751 1.751 1.751 0 0 1-1.751-1.749z" transform="translate(2553.973 -3712.351)" style="fill:#0a3254;stroke:transparent;stroke-miterlimit:10"/>
</svg>
