<svg xmlns="http://www.w3.org/2000/svg" width="97.391" height="97.206" viewBox="0 0 97.391 97.206">
    <path data-name="Rectangle 11212" transform="translate(.708 .706)" style="fill:none" d="M0 0h96v96H0z"/>
    <path data-name="Union 36" d="M-3048.858 3835v-3.493h1.746V3835zm-4.361-4.361v-1.746h3.493v1.746zm6.975 0v-1.745h3.493v1.745zm-2.614-2.614v-3.493h1.746v3.493zm74.536-52.724 1.533-2.654 1.327.765-1.532 2.656zm3.9-2.167.765-1.327 2.655 1.532-.767 1.327zm-5.3-3.061.767-1.327 2.654 1.532-.765 1.327zm4.462-.073 1.533-2.656 1.327.766-1.533 2.655zm-87.754-26.016 1-1 2 2-1 1zm-3.986 1 2-2 1 1-1.994 2zm3.986-3.985 2-2 1 1-2 2zm-3.986-1 1-1 1.994 2-1 1z" transform="translate(3063.708 -3738.294)" style="stroke:transparent;stroke-miterlimit:10;fill:#0b3254;opacity:.35"/>
    <path data-name="Union 39" d="M-3049.114 3804.9a4 4 0 0 1-4-4v-38.86a4 4 0 0 1 4-4h53.819a4 4 0 0 1 4 4v38.86a4 4 0 0 1-4 4zm-9.819-54.37a4.033 4.033 0 0 1-4.066-4V3743a4.033 4.033 0 0 1 4.066-4h55.42a4.033 4.033 0 0 1 4.066 4v3.525a4.033 4.033 0 0 1-4.066 4z" transform="translate(3075.579 -3721.011)" style="fill:#b6c2cc;stroke:transparent;stroke-miterlimit:10"/>
    <path data-name="Path 13350" d="M89.743 67.086a2.235 2.235 0 0 0-1.595-1.824l-3-.858a18.54 18.54 0 0 0-.6-1.459l1.516-2.731A2.229 2.229 0 0 0 85.9 57.8a20.7 20.7 0 0 0-4.249-4.25 2.233 2.233 0 0 0-2.417-.161L76.5 54.906q-.715-.337-1.458-.606l-.859-3a2.231 2.231 0 0 0-1.822-1.6 20.593 20.593 0 0 0-6.011 0 2.23 2.23 0 0 0-1.821 1.6l-.859 3a18.86 18.86 0 0 0-1.459.6l-2.729-1.517a2.235 2.235 0 0 0-2.417.161 20.682 20.682 0 0 0-4.25 4.251 2.23 2.23 0 0 0-.159 2.414l1.516 2.73c-.224.478-.427.965-.6 1.46l-3 .858a2.231 2.231 0 0 0-1.594 1.821 20.534 20.534 0 0 0 0 6.009 2.236 2.236 0 0 0 1.595 1.824l3 .858c.179.495.382.983.606 1.459l-1.517 2.73a2.229 2.229 0 0 0 .162 2.417 20.667 20.667 0 0 0 4.249 4.249 2.226 2.226 0 0 0 2.416.16l2.729-1.517q.717.337 1.462.606l.857 3a2.231 2.231 0 0 0 1.821 1.594 20.488 20.488 0 0 0 6.009 0 2.232 2.232 0 0 0 1.822-1.6l.859-3q.743-.267 1.46-.606l2.722 1.529a2.233 2.233 0 0 0 2.417-.161A20.7 20.7 0 0 0 85.9 82.38a2.233 2.233 0 0 0 .16-2.417l-1.517-2.73c.224-.477.427-.964.6-1.459l3-.858a2.235 2.235 0 0 0 1.595-1.824 20.7 20.7 0 0 0 0-6.006" transform="translate(.708 .706)" style="fill:#fff"/>
    <path data-name="Union 38" d="M-3005.319 3817.886a2.465 2.465 0 0 1-2.009-1.76l-.947-3.314q-.824-.294-1.613-.668l-3.012 1.673a2.454 2.454 0 0 1-2.667-.176 22.857 22.857 0 0 1-4.69-4.689 2.465 2.465 0 0 1-.178-2.668l1.674-3.014a18.498 18.498 0 0 1-.668-1.611l-3.313-.947a2.464 2.464 0 0 1-1.76-2.012 23.135 23.135 0 0 1-.243-3.315 22.977 22.977 0 0 1 .245-3.317 2.463 2.463 0 0 1 1.76-2.01l3.313-.947q.295-.821.667-1.611l-1.673-3.012a2.465 2.465 0 0 1 .176-2.666 22.837 22.837 0 0 1 4.69-4.692 2.467 2.467 0 0 1 2.668-.177l3.012 1.674q.791-.372 1.61-.668l.949-3.313a2.463 2.463 0 0 1 2.009-1.759 22.761 22.761 0 0 1 6.634 0 2.46 2.46 0 0 1 2.011 1.759l.948 3.314q.819.295 1.61.668l3.014-1.675a2.466 2.466 0 0 1 2.667.177 22.882 22.882 0 0 1 4.689 4.691 2.463 2.463 0 0 1 .176 2.667l-1.672 3.012q.371.791.667 1.611l3.314.947a2.463 2.463 0 0 1 1.76 2.013 23.148 23.148 0 0 1 .241 3.314 23.162 23.162 0 0 1-.241 3.315 2.462 2.462 0 0 1-1.76 2.012l-3.314.947q-.295.821-.667 1.611l1.673 3.014a2.463 2.463 0 0 1-.176 2.668 22.808 22.808 0 0 1-4.69 4.689 2.463 2.463 0 0 1-2.667.177l-3.013-1.675q-.791.372-1.612.669l-.948 3.314a2.463 2.463 0 0 1-2.011 1.76 22.943 22.943 0 0 1-3.314.242 23.066 23.066 0 0 1-3.319-.242zm-3.393-10.677a13.5 13.5 0 0 0 3.095 1.282 2.465 2.465 0 0 1 1.715 1.7l.852 2.983a17.347 17.347 0 0 0 2.1 0l.853-2.982a2.46 2.46 0 0 1 1.712-1.7 13.46 13.46 0 0 0 3.095-1.283 2.459 2.459 0 0 1 2.416-.011l2.711 1.506a17.681 17.681 0 0 0 1.482-1.481l-1.506-2.713a2.467 2.467 0 0 1 .011-2.414 13.452 13.452 0 0 0 1.276-3.096 2.461 2.461 0 0 1 1.7-1.715l2.982-.853a18.414 18.414 0 0 0 0-2.096l-2.982-.852a2.467 2.467 0 0 1-1.7-1.717 13.444 13.444 0 0 0-1.282-3.091 2.467 2.467 0 0 1-.011-2.414l1.505-2.713a17.289 17.289 0 0 0-1.481-1.482l-2.711 1.507a2.47 2.47 0 0 1-2.415-.012 13.553 13.553 0 0 0-3.093-1.283 2.462 2.462 0 0 1-1.714-1.7l-.853-2.983a17.582 17.582 0 0 0-2.1 0l-.853 2.983a2.46 2.46 0 0 1-1.715 1.7 13.547 13.547 0 0 0-3.091 1.284 2.47 2.47 0 0 1-2.415.012l-2.712-1.507a17.634 17.634 0 0 0-1.483 1.482l1.507 2.712a2.46 2.46 0 0 1-.012 2.413 13.465 13.465 0 0 0-1.281 3.093 2.464 2.464 0 0 1-1.7 1.716l-2.985.853a18.27 18.27 0 0 0 0 2.095l2.984.854a2.46 2.46 0 0 1 1.7 1.713 13.506 13.506 0 0 0 1.284 3.093 2.461 2.461 0 0 1 .012 2.415l-1.507 2.713a18.06 18.06 0 0 0 1.482 1.481l2.711-1.505a2.464 2.464 0 0 1 1.2-.312 2.453 2.453 0 0 1 1.217.325zm-46.416-3.795a7.88 7.88 0 0 1-7.871-7.871v-48.672a7.88 7.88 0 0 1 7.871-7.872h54.08a7.88 7.88 0 0 1 7.871 7.872v20.885h-4.926v-10.335h-59.97v38.123a2.949 2.949 0 0 0 2.946 2.945h24.938v4.926zm-2.946-56.543v6.855h59.97v-6.855a2.949 2.949 0 0 0-2.945-2.946h-54.08a2.949 2.949 0 0 0-2.945 2.947zm48.2 48.515a7.88 7.88 0 0 1 7.871-7.872 7.88 7.88 0 0 1 7.871 7.872 7.88 7.88 0 0 1-7.871 7.871 7.88 7.88 0 0 1-7.871-7.87zm4.925 0a2.949 2.949 0 0 0 2.946 2.945 2.948 2.948 0 0 0 2.945-2.945 2.948 2.948 0 0 0-2.945-2.946 2.949 2.949 0 0 0-2.945 2.947zm-29.055-2.3-1.079-1.663a10.47 10.47 0 0 1-1-.095l-1.375 1.429a1.419 1.419 0 0 1-1.5.353 13.3 13.3 0 0 1-1.75-.771 13.233 13.233 0 0 1-1.62-1.02 1.415 1.415 0 0 1-.547-1.435l.412-1.939q-.338-.372-.639-.775l-1.981.039a1.414 1.414 0 0 1-1.308-.809 13.129 13.129 0 0 1-1.119-3.648 1.417 1.417 0 0 1 .629-1.4l1.663-1.079q.025-.5.095-1l-1.429-1.375a1.417 1.417 0 0 1-.353-1.5 13.219 13.219 0 0 1 .771-1.751 13.166 13.166 0 0 1 1.02-1.619 1.413 1.413 0 0 1 1.436-.547l1.939.412c.246-.225.506-.438.773-.639l-.037-1.982a1.415 1.415 0 0 1 .808-1.307 13.114 13.114 0 0 1 3.648-1.12 1.419 1.419 0 0 1 1.4.629l1.079 1.663c.335.016.668.048 1 .095l1.375-1.428a1.412 1.412 0 0 1 1.5-.352 13.045 13.045 0 0 1 3.372 1.787 1.417 1.417 0 0 1 .547 1.438l-.412 1.94c.224.246.437.5.638.772l1.982-.038a1.418 1.418 0 0 1 1.308.81 13.183 13.183 0 0 1 1.118 3.648 1.417 1.417 0 0 1-.629 1.4l-1.663 1.081c-.016.334-.047.668-.095 1l1.429 1.375a1.415 1.415 0 0 1 .352 1.5 13.169 13.169 0 0 1-.771 1.75 13.359 13.359 0 0 1-1.018 1.62 1.417 1.417 0 0 1-1.437.548l-1.94-.412c-.247.225-.505.437-.772.638l.037 1.982a1.417 1.417 0 0 1-.809 1.308 13.132 13.132 0 0 1-3.648 1.118 1.518 1.518 0 0 1-.217.016 1.414 1.414 0 0 1-1.179-.645zm.883-3.844.973 1.5a10.051 10.051 0 0 0 1.153-.354l-.036-1.784a1.423 1.423 0 0 1 .657-1.225 7.723 7.723 0 0 0 1.486-1.226 1.418 1.418 0 0 1 1.326-.414l1.745.371c.1-.172.205-.348.3-.525s.182-.356.266-.541l-1.286-1.237a1.416 1.416 0 0 1-.4-1.33 7.787 7.787 0 0 0 .183-1.917 1.415 1.415 0 0 1 .644-1.229l1.5-.974a10.286 10.286 0 0 0-.353-1.153l-1.785.034a1.417 1.417 0 0 1-1.223-.656 7.862 7.862 0 0 0-1.227-1.486 1.416 1.416 0 0 1-.414-1.325l.371-1.746a10.358 10.358 0 0 0-1.065-.565l-1.237 1.286a1.419 1.419 0 0 1-1.33.4 7.749 7.749 0 0 0-1.917-.182 1.42 1.42 0 0 1-1.23-.645l-.972-1.5a10.179 10.179 0 0 0-1.154.353l.034 1.785a1.411 1.411 0 0 1-.656 1.223 7.8 7.8 0 0 0-1.485 1.227 1.422 1.422 0 0 1-1.326.415l-1.746-.373q-.158.261-.3.526a10.84 10.84 0 0 0-.267.54l1.287 1.237a1.417 1.417 0 0 1 .4 1.329 7.809 7.809 0 0 0-.181 1.917 1.415 1.415 0 0 1-.645 1.231l-1.5.973a10.306 10.306 0 0 0 .353 1.153l1.785-.035a1.419 1.419 0 0 1 1.224.657 7.781 7.781 0 0 0 1.227 1.487 1.418 1.418 0 0 1 .414 1.325l-.371 1.746a10.16 10.16 0 0 0 1.064.564l1.237-1.286a1.419 1.419 0 0 1 1.329-.4 7.771 7.771 0 0 0 1.918.183h.044a1.416 1.416 0 0 1 1.187.649zm-3.573-4.462a4.533 4.533 0 0 1-1.879-6.122 4.534 4.534 0 0 1 6.123-1.877 4.533 4.533 0 0 1 1.877 6.123 4.533 4.533 0 0 1-4.006 2.4 4.492 4.492 0 0 1-2.115-.522zm.625-4.794a1.7 1.7 0 0 0 .7 2.291 1.7 1.7 0 0 0 2.291-.7 1.7 1.7 0 0 0-.7-2.29 1.686 1.686 0 0 0-.792-.2 1.7 1.7 0 0 0-1.499.901zm-2.35-30.858a2.482 2.482 0 0 1 2.481-2.483 2.482 2.482 0 0 1 2.482 2.483 2.481 2.481 0 0 1-2.482 2.482 2.481 2.481 0 0 1-2.481-2.48zm-8.269 0a2.483 2.483 0 0 1 2.483-2.483 2.483 2.483 0 0 1 2.482 2.483 2.482 2.482 0 0 1-2.482 2.482 2.482 2.482 0 0 1-2.483-2.48zm-8.268 0a2.482 2.482 0 0 1 2.482-2.483 2.482 2.482 0 0 1 2.482 2.483 2.481 2.481 0 0 1-2.482 2.482 2.481 2.481 0 0 1-2.481-2.48z" transform="translate(3072.378 -3725.367)" style="fill:#0a3254;stroke:transparent;stroke-miterlimit:10"/>
</svg>
