<svg xmlns="http://www.w3.org/2000/svg" width="96.489" height="97.184" viewBox="0 0 96.489 97.184">
    <path data-name="Rectangle 11245" transform="translate(.489 .5)" style="fill:none" d="M0 0h96v96H0z"/>
    <path data-name="Union 50" d="m-3333.427 3834.14 1.72-2.98 1.49.861-1.721 2.981zm4.378-2.433.859-1.489 2.981 1.72-.859 1.49zm-5.952-3.435.86-1.491 2.98 1.721-.859 1.49zm5.01-.083 1.721-2.98 1.489.859-1.72 2.981zm75.261-8.411 1.119-1.12 2.24 2.241-1.119 1.119zm-4.474 1.119 2.24-2.24 1.119 1.12-2.24 2.24zm4.474-4.473 2.24-2.239 1.119 1.119-2.24 2.24zm-4.474-1.119 1.119-1.119 2.24 2.239-1.119 1.12zm-53.434-64.554v-3.92h1.961v3.92zm2.935-4.9v-1.96h3.92v1.96zm-7.829 0v-1.96h3.92v1.96zm4.893-2.935V3739h1.96v3.92z" transform="translate(3346.859 -3738.501)" style="stroke:transparent;stroke-miterlimit:10;fill:#0b3254;opacity:.35"/>
    <path data-name="Union 52" d="M-3271.545 3793.632h-12.255l-.712-.8c-.8-.893-.8-.893-.712-14.395l.009-3.68c0-6.872 3.273-10.5 9.464-10.5h8.4c6.189 0 9.463 3.632 9.463 10.5l.009 3.68c.087 13.5.087 13.5-.711 14.395l-.712.8h-12.236zm-46.263 0h-12.258l-.712-.8c-.8-.893-.8-.893-.712-14.395l.01-3.68c0-6.872 3.273-10.5 9.463-10.5h8.4c6.189 0 9.463 3.632 9.463 10.5l.01 3.68c.086 13.5.086 13.5-.712 14.395l-.712.8h-12.236zm46.552-46.309a8.333 8.333 0 0 1 8.323-8.323 8.332 8.332 0 0 1 8.322 8.323 8.333 8.333 0 0 1-8.322 8.323 8.333 8.333 0 0 1-8.323-8.323zm-63.743 0a8.334 8.334 0 0 1 8.323-8.326 8.333 8.333 0 0 1 8.323 8.323 8.333 8.333 0 0 1-8.323 8.323 8.333 8.333 0 0 1-8.324-8.317z" transform="translate(3342.294 -3720.087)" style="fill:#b6c2cc;stroke:transparent;stroke-miterlimit:10"/>
    <path data-name="Path 13359" d="M65.274 80.344c0-3.475-.012-7.577-.017-10.1l-.005-2.289a15.419 15.419 0 0 0-15.4-15.4h-7.026a15.419 15.419 0 0 0-15.4 15.4c0 .247-.006 1.084-.014 2.276-.123 17.365-.123 17.365.747 18.241l.744.748h34.87l.741-.742c.767-.769.767-.769.761-8.133" transform="translate(.489 .5)" style="fill:#fff"/>
    <path data-name="Path 13360" d="M46.338 46.421a11.893 11.893 0 1 0-11.892-11.889 11.906 11.906 0 0 0 11.892 11.889" transform="translate(.489 .5)" style="fill:#fff"/>
    <path data-name="Union 51" d="M-3270.75 3812.687h-36.971l-.812-.819c-.95-.958-.95-.958-.816-19.94.009-1.3.016-2.217.016-2.487a16.853 16.853 0 0 1 16.835-16.835h7.679a16.853 16.853 0 0 1 16.834 16.835l.006 2.5c0 2.76.016 7.243.019 11.042.006 8.051.006 8.051-.833 8.89l-.809.813zm-33.054-23.246c0 .274-.007 1.2-.017 2.528-.021 3.107-.078 11.09-.057 15.187h30.388c0-4.07-.011-11.759-.019-15.2v-2.514a11.318 11.318 0 0 0-11.305-11.305h-7.679a11.318 11.318 0 0 0-11.307 11.304zm40.738 1.247v-5.53h16.537c.006-3.049-.03-8-.045-10.024l-.01-1.807a7.27 7.27 0 0 0-7.263-7.262h-5.469a7.272 7.272 0 0 0-7.265 7.262v1.741l-5.53-.014v-1.727a12.806 12.806 0 0 1 12.792-12.792h5.471a12.807 12.807 0 0 1 12.793 12.792l.011 1.767c.1 13.859.1 13.859-.812 14.775l-.812.817h-20.4zm-70.267 0-.812-.817c-.911-.917-.911-.917-.812-14.776l.011-1.767a12.806 12.806 0 0 1 12.791-12.792h5.47a12.807 12.807 0 0 1 12.794 12.792v1.727l-5.529.014-.006-1.741a7.269 7.269 0 0 0-7.262-7.261h-5.473a7.269 7.269 0 0 0-7.261 7.261l-.011 1.807c-.015 2.023-.051 6.976-.045 10.024h16.537v5.53zm31.674-33.5a13.017 13.017 0 0 1 13-13 13.016 13.016 0 0 1 13 13 13.016 13.016 0 0 1-13 13 13.014 13.014 0 0 1-13-13zm5.529 0a7.481 7.481 0 0 0 7.47 7.469 7.48 7.48 0 0 0 7.471-7.469 7.48 7.48 0 0 0-7.471-7.47 7.479 7.479 0 0 0-7.47 7.467zm29.49-8.126a10.07 10.07 0 0 1 10.059-10.062 10.07 10.07 0 0 1 10.059 10.058 10.073 10.073 0 0 1-10.059 10.06 10.071 10.071 0 0 1-10.058-10.059zm5.53 0a4.533 4.533 0 0 0 4.529 4.529 4.533 4.533 0 0 0 4.528-4.527 4.534 4.534 0 0 0-4.528-4.531 4.534 4.534 0 0 0-4.529 4.526zm-68.367 0a10.071 10.071 0 0 1 10.059-10.062 10.069 10.069 0 0 1 10.058 10.058 10.071 10.071 0 0 1-10.058 10.06 10.071 10.071 0 0 1-10.059-10.056zm5.53 0a4.536 4.536 0 0 0 4.53 4.529 4.533 4.533 0 0 0 4.529-4.529 4.534 4.534 0 0 0-4.529-4.529 4.534 4.534 0 0 0-4.531 4.526z" transform="translate(3335.489 -3721.823)" style="fill:#0a3254;stroke:transparent;stroke-miterlimit:10"/>
</svg>
